<?xml version="1.0" standalone="no"?>
<!DOCTYPE svg PUBLIC "-//W3C//DTD SVG 20010904//EN"
 "http://www.w3.org/TR/2001/REC-SVG-20010904/DTD/svg10.dtd">
<svg version="1.0" xmlns="http://www.w3.org/2000/svg"
 width="1000.000000pt" height="1000.000000pt" viewBox="0 0 1000.000000 1000.000000"
 preserveAspectRatio="xMidYMid meet">
<metadata>
Created by potrace 1.14, written by Peter Selinger 2001-2017
</metadata>
<g transform="translate(0.000000,1000.000000) scale(0.100000,-0.100000)"
fill="#000000" stroke="none">
<path d="M3890 9993 c-76 -14 -290 -78 -359 -107 -295 -125 -391 -250 -492
-649 -35 -136 -32 -125 -54 -227 -66 -311 -203 -601 -414 -877 -154 -202 -601
-669 -751 -785 -202 -155 -410 -262 -635 -327 -95 -27 -274 -59 -365 -65 -360
-25 -644 -280 -773 -696 -38 -122 -46 -174 -42 -270 5 -128 43 -218 133 -312
129 -136 320 -209 525 -203 94 3 126 8 217 37 335 106 590 410 645 768 13 85
18 110 37 185 53 219 189 472 369 687 32 39 117 131 187 207 136 143 140 147
261 280 42 46 87 96 101 111 14 15 54 60 90 100 270 303 507 471 793 565 56
18 136 38 177 45 41 6 89 14 105 17 77 12 248 3 350 -18 242 -52 408 -148 610
-353 132 -133 163 -166 315 -336 47 -52 92 -101 100 -110 44 -48 161 -180 186
-210 16 -19 31 -37 34 -40 25 -21 149 -226 189 -311 106 -227 151 -411 166
-689 6 -110 14 -155 46 -254 182 -556 831 -829 1338 -564 269 141 433 402 435
693 1 138 -6 189 -39 295 -68 214 -204 403 -386 540 -66 49 -190 118 -254 141
-105 38 -163 49 -269 54 -50 3 -138 7 -196 10 -58 2 -116 7 -130 9 -14 3 -43
7 -65 11 -181 26 -436 132 -609 252 -82 57 -253 222 -406 392 -47 52 -110 122
-141 155 -145 157 -211 245 -281 376 -63 118 -120 283 -134 390 -3 25 -9 65
-13 90 -8 55 -7 170 3 270 8 74 9 208 2 219 -2 3 -7 22 -10 41 -33 200 -170
375 -345 441 -55 20 -193 33 -251 22z"/>
<path d="M5889 9980 c-181 -55 -313 -206 -369 -420 -25 -100 -22 -292 8 -393
77 -254 275 -484 518 -602 117 -57 194 -79 347 -101 375 -53 698 -239 1012
-584 28 -30 91 -100 140 -155 50 -55 111 -122 136 -150 26 -27 59 -63 74 -80
15 -16 78 -84 140 -150 62 -66 126 -135 141 -154 16 -18 42 -48 57 -65 52 -58
187 -266 236 -364 100 -199 143 -370 147 -582 2 -131 -3 -179 -30 -305 -31
-147 -151 -369 -271 -501 -112 -125 -487 -515 -580 -604 -47 -45 -61 -58 -113
-102 -106 -88 -298 -191 -458 -244 -160 -54 -284 -76 -489 -89 -84 -5 -100 -8
-180 -26 -340 -76 -620 -328 -723 -649 -92 -286 -15 -606 198 -819 150 -151
332 -230 545 -236 273 -8 517 95 731 309 132 133 214 267 263 431 32 108 31
103 46 380 5 108 8 123 31 230 38 177 116 361 221 519 56 85 117 152 382 417
247 247 335 328 401 371 200 131 375 194 595 215 78 8 122 8 275 1 209 -10
391 53 519 181 183 180 201 369 74 751 -115 346 -327 520 -665 545 -45 3 -108
8 -139 10 -46 4 -117 16 -235 41 -64 13 -241 77 -324 117 -281 135 -417 242
-710 553 -404 430 -519 580 -658 859 -86 174 -129 304 -188 569 -44 199 -152
377 -349 572 -259 257 -542 371 -756 304z"/>
<path d="M2059 9163 c-59 -20 -166 -96 -302 -212 -100 -86 -542 -520 -642
-632 -37 -41 -130 -150 -148 -174 -4 -5 -25 -32 -46 -60 -48 -62 -89 -140 -94
-180 -9 -66 47 -111 138 -108 107 3 372 112 523 214 145 98 209 155 368 323
29 31 137 179 173 239 85 139 168 353 175 448 8 115 -51 173 -145 142z"/>
<path d="M7855 9165 c-94 -39 -77 -197 49 -457 160 -334 451 -628 785 -794
301 -148 479 -155 483 -17 1 32 -41 127 -71 160 -9 10 -36 45 -61 77 -80 106
-211 247 -450 486 -242 241 -355 344 -495 450 -123 93 -187 118 -240 95z"/>
<path d="M3450 7324 c-442 -67 -827 -485 -865 -937 -4 -40 -8 -97 -11 -127
-18 -218 -95 -481 -199 -677 -41 -77 -107 -184 -130 -209 -5 -7 -28 -35 -50
-63 -41 -53 -385 -394 -491 -488 -177 -155 -354 -250 -574 -307 -144 -37 -205
-41 -535 -36 -192 4 -345 -50 -455 -160 -137 -136 -168 -306 -102 -560 72
-273 182 -451 349 -562 132 -88 227 -123 459 -169 143 -28 285 -65 339 -89 11
-5 46 -18 77 -29 130 -46 319 -150 469 -257 146 -104 259 -209 484 -449 26
-27 79 -84 119 -126 124 -132 151 -162 216 -244 222 -280 363 -564 451 -905
64 -252 161 -420 350 -610 94 -96 245 -201 354 -248 257 -111 477 -78 636 95
169 186 207 500 91 756 -141 310 -465 542 -812 582 -295 34 -615 185 -875 413
-50 43 -172 166 -270 272 -226 243 -217 234 -339 360 -88 90 -136 145 -246
276 -39 47 -140 204 -183 284 -78 144 -141 319 -163 450 -4 25 -9 56 -11 70
-13 70 -11 310 3 380 48 257 156 452 355 646 62 60 194 188 293 285 100 98
201 194 226 215 65 54 193 135 285 182 83 41 265 107 325 117 19 3 51 10 70
15 68 17 165 27 360 35 136 6 163 10 255 37 335 97 597 368 679 703 32 130 31
316 -2 438 -120 444 -503 707 -932 641z"/>
<path d="M9318 4484 c-2 -1 -26 -6 -53 -10 -74 -10 -191 -50 -275 -95 -223
-120 -395 -318 -476 -550 -29 -82 -28 -77 -50 -209 -57 -343 -219 -635 -533
-962 -64 -67 -132 -138 -151 -158 -47 -49 -223 -239 -296 -320 -123 -136 -262
-274 -334 -333 -229 -185 -484 -305 -735 -343 -85 -13 -295 -12 -375 2 -113
20 -247 66 -342 116 -156 84 -192 116 -716 655 -275 283 -321 342 -416 531
-43 84 -109 266 -121 330 -2 15 -9 50 -14 78 -6 28 -13 91 -16 140 -9 139 -14
182 -31 256 -48 209 -174 394 -366 536 -31 23 -60 42 -64 42 -3 0 -18 8 -32
18 -71 49 -260 112 -377 127 -56 7 -197 7 -235 1 -14 -3 -41 -7 -60 -10 -180
-27 -379 -145 -509 -301 -45 -55 -116 -206 -134 -286 -15 -69 -16 -222 -3
-294 48 -251 201 -488 411 -640 140 -101 262 -155 430 -191 20 -4 97 -9 280
-19 175 -9 299 -33 465 -90 105 -37 272 -115 301 -141 8 -8 19 -14 23 -14 6 0
49 -30 129 -91 46 -36 387 -385 556 -569 122 -134 257 -395 287 -554 31 -168
34 -244 19 -491 -9 -139 8 -227 66 -345 71 -143 184 -239 332 -280 81 -23 250
-21 364 4 139 30 306 105 429 192 133 94 211 213 273 419 32 108 38 143 47
280 3 50 12 119 19 155 38 184 186 492 331 692 38 52 177 220 211 256 10 10
72 76 138 147 235 252 341 358 430 430 271 219 546 347 880 410 300 56 390 87
531 180 207 138 364 387 429 677 64 292 -92 532 -395 605 -55 14 -263 27 -272
17z"/>
<path d="M888 2193 c-70 -28 -78 -105 -20 -198 29 -47 148 -198 212 -270 73
-83 600 -606 669 -665 110 -94 238 -188 287 -209 59 -26 94 -26 127 -1 59 46
58 135 -3 301 -157 424 -513 793 -944 978 -161 69 -265 89 -328 64z"/>
<path d="M8985 2194 c-75 -15 -227 -74 -325 -127 -394 -210 -711 -581 -841
-984 -49 -149 -21 -252 69 -253 104 -1 313 167 729 585 329 330 485 511 534
618 19 43 25 104 11 122 -31 42 -94 56 -177 39z"/>
</g>
</svg>
